<svg xmlns="http://www.w3.org/2000/svg"><symbol id="brachiosaurus" viewBox="0 0 256 256"><path d="M59 167.8a31.6 31.6 0 0 0-7.6.9v.2c0 .2.2.5.7.9l2 1.1 2.7.9 2.8.9 2.4.6 1.4.2h2.1l2.6-.4a15.7 15.7 0 0 0 2.3-.9 6.1 6.1 0 0 0 1.7-1.4 24.3 24.3 0 0 0-6.4-2.2 29.3 29.3 0 0 0-6.7-.8z"/><path d="M127.7 2.5A126.5 126.5 0 1 0 254.2 129 126.5 126.5 0 0 0 127.7 2.5zm82.5 69.8v.3a8.8 8.8 0 0 1-.1 1.4c-.2.7-.2 1.4-.4 2.1l-.3 2.1c-.1.6-.2 1.1-.2 1.3a7.6 7.6 0 0 0-.9 1.8 15.9 15.9 0 0 0-.7 2l-.6 2a7.3 7.3 0 0 1-.7 1.9c-.5 1.1-1.1 2.1-1.6 3a18.2 18.2 0 0 0-1.6 3.1l-19.9 27.6a1.7 1.7 0 0 0-.2.5l-.3.3-.3.3-.4.5-1.7 2.2-2 2.9-2.2 3.2a27.9 27.9 0 0 0-1.9 3.3 15.3 15.3 0 0 0-1.4 2.9 6 6 0 0 0-.6 2.3c0 .3-.2.5-.2.7s.2.5.2.7c-.1 0-.2.1-.2.3s.1.4.2.4v10.2a4.4 4.4 0 0 1-.2 1c-.2.3-.2.7-.4 1.1s-.5.8-.6 1.2-.4.8-.4 1.1v1.7a.4.4 0 0 1-.1.4 5.9 5.9 0 0 1-.4.8c-.1.3-.5.5-.7.8a1.4 1.4 0 0 1-.5.4v.4c0 .1.7.2.8.4s.9.3.9.4v2.9c0 1.1-.5 2.3-.6 3.5s-.6 2.3-.8 3.4-.5 2.4-.7 3.5a21.6 21.6 0 0 0-.3 3.5q0 3.2.3 6.3a41 41 0 0 0 1.1 6.1 27.8 27.8 0 0 0 2.1 5.7 22.2 22.2 0 0 0 3.4 5.2 4.8 4.8 0 0 1-1.3.9 7.6 7.6 0 0 1-1.6.6l-1.7.5h-1.9l-1.1-.3-1.2-.2-.9-.2-.8-.2-.7-.3-.6-.4a2 2 0 0 1-.4-.8 26.1 26.1 0 0 0 .2-4l-.3-4.2c-.2-1.5-.3-2.9-.5-4.3l-.6-4.1-.2-.6a.8.8 0 0 0-.2-.6c.1-1.1.1-2.3.1-3.6s0-2.7-.1-4a25.7 25.7 0 0 0-.6-4 12.8 12.8 0 0 0-1.4-3.4 4.5 4.5 0 0 0-1.5 1.8c-.2.9-.5 1.8-.7 2.7a29.3 29.3 0 0 1-.5 2.9c-.2 1-.9 1.7-.9 2.3v7.6c0 2.8-.2 5.5-.1 8.2a77.2 77.2 0 0 0 .6 8.2l.4.3.8.6.8.7a.9.9 0 0 1 .3.6c0 .2-.2.5-.8.8l-1.8.9-2 .8-1.3.4h-.2l-4.7-2.6a.3.3 0 0 1-.2-.4v-.6a29.9 29.9 0 0 1 0-3 28.1 28.1 0 0 0 .1-3 23.4 23.4 0 0 0-.3-3.8l-.6-3.7-.6-3.7c-.1-1.3-.2-2.6-.2-3.9s0-2.3.1-3.3l.3-2.8.6-2.8c.2-.9.4-2 .6-3.2a.8.8 0 0 0 0-.7 2 2 0 0 1-.1-.7l-1.9.2-1.9.5-1.9.6a10.6 10.6 0 0 1-1.9.6l-1.3.2h-2.1l-1-.2h-7.1a44.3 44.3 0 0 0-5.2-.2h-2.4a3.8 3.8 0 0 0-2.4.9 43.4 43.4 0 0 1 0 5.1c0 1.7-.1 3.4-.1 5.1l-.3 5.1c0 1.7-.1 3.4-.1 5.2v5c0 .6.6 1.1 1.1 1.7s.9 1.1 1.4 1.7l1.2 1.7a4.1 4.1 0 0 1 .5 1.8v.4a9.4 9.4 0 0 1-4.1.4c.1.5 0 .7-.2.8H115l-2.2-.2a6.6 6.6 0 0 1-1.9-.9 2.1 2.1 0 0 1-.7-1.8 5.3 5.3 0 0 1 .1-1.3l.3-1.3a6.1 6.1 0 0 0 .3-1.3 6.8 6.8 0 0 0 .2-1.4 23.4 23.4 0 0 0-.3-3.8c-.2-1.2-.4-2.4-.7-3.6s-.5-2.6-.8-3.8a30.8 30.8 0 0 1-.7-3.9h-.4c-.2 0-.4.7-.5.9s-.3.5-.4.6a1.1 1.1 0 0 0-.3.6c-.5.7-1 1.5-1.6 2.2s-1 1.5-1.4 2.3a12.8 12.8 0 0 0-1.1 2.4 8.4 8.4 0 0 0-.4 2.7 4.5 4.5 0 0 0 .3 1.6 10.7 10.7 0 0 0 .7 1.5l.7 1.2c.3.3.4.5.4.6a1.3 1.3 0 0 1-.4.7l-1 .4a7 7 0 0 1-1.4.3h-4.3a2.3 2.3 0 0 1-1-.4 1.6 1.6 0 0 1-.7-.9 9.1 9.1 0 0 1-.6-1.6c-.2-.5-.3-1.1-.5-1.6a4.5 4.5 0 0 1-.3-1.6 4.2 4.2 0 0 1 .4-1.5 14 14 0 0 1 1-1.6l1-1.6a4.1 4.1 0 0 0 .8-1.4c.9-2 1.7-3.9 2.5-5.9l2.4-5.9.5-.7.5-.7.5-.8a1.9 1.9 0 0 0 .1-.8q0-.6-.3-.6h-1.3l-8.9 2.4a2.2 2.2 0 0 1-1.3.5l-1.8.4-1.5.6a1.1 1.1 0 0 0-.7 1.1 2.9 2.9 0 0 0 .2.9l.7.6.8.6a1.3 1.3 0 0 1 .7.6l-.4.4a12.5 12.5 0 0 0-1.2-.8l-1.4-.9-1.5-.6-1.5-.2a17.3 17.3 0 0 0-3.8.5l-4 1.1c-1.3.5-2.6.8-4 1.2a20.1 20.1 0 0 1-4.2.5l-3.5-.4c-1.5-.3-3.1-.6-4.8-1.1l-5.4-1.5a39.3 39.3 0 0 1-5-2.2 15.4 15.4 0 0 1-3.7-2.7 4.2 4.2 0 0 1-1.4-2.9 4.7 4.7 0 0 1 1.1-3.3 6.1 6.1 0 0 1 2.8-1.6c1-.4 2.2-.1 3.4-.2s2.4.4 3.4.4h3.9c.2 0 .6-.4 1.3-.3a19.5 19.5 0 0 1 2.3.2l2.6.3 1.9.2a7.6 7.6 0 0 1 2 .6l1.7.8 1.9.8a6 6 0 0 0 2 .3 8.9 8.9 0 0 0 3.9-1.1 25 25 0 0 0 4.1-2.5 40.8 40.8 0 0 0 3.9-3.1l3.2-2.7 1.9-1.3 1.8-1 1.8-1.3a7.9 7.9 0 0 0 1.4-1.7 33.5 33.5 0 0 0 2.7-4.5 28.2 28.2 0 0 1 2.6-4.4l1.3-1.3 1.6-1 1.6-.9a5.1 5.1 0 0 0 1.6-.9 40.6 40.6 0 0 0 3.6-2.6c1.2-.9 2.3-1.9 3.4-2.9l3.4-3 3.4-2.8a17.9 17.9 0 0 1 3.8-2.2l3.9-1.9 2.5-1.2 2.4-1.3a15.1 15.1 0 0 1 2.6-1.2 11.1 11.1 0 0 1 2.6-.7l22.3-3.3a8.9 8.9 0 0 0 3.5-1.1 14.6 14.6 0 0 0 3.3-2.2 21.5 21.5 0 0 0 3.2-2.9c1-1 2-2.1 2.9-3.2l2.7-3.2 2.3-2.8 7.7-8.9.3-.3.5-.5.5-.6.3-.2 2-3.3h.3l.4-.3.3-.2.3-.2.4-.4.3-.4 1.3-1.7 1.3-1.9 1.3-2a10.6 10.6 0 0 0 1-1.7 17.6 17.6 0 0 0 .9-2 17.2 17.2 0 0 1 .7-2.1 14.2 14.2 0 0 1 .7-2.2c.3-.7 1-1.5 1-2.2v-6.2a5.3 5.3 0 0 0-1.1-3.1 16 16 0 0 0-2.6-2.6 17.4 17.4 0 0 0-3.3-1.8 10.4 10.4 0 0 0-3.2-.6 27.2 27.2 0 0 0-5.8.6 12.6 12.6 0 0 0-5.1 2.7 9.2 9.2 0 0 0-1.5 1.4l-1.6 1.9-1.7 1.9-1.8 1.9-1.8 1.3a4.1 4.1 0 0 1-1.8.5 1.7 1.7 0 0 1-1.2-.5 1.6 1.6 0 0 1-.5-1.1v-.4a4.3 4.3 0 0 0 .1-.5c.1-.2.1-.5.2-.8s.1-.5.1-.7a1.3 1.3 0 0 0 .1-.5 8.8 8.8 0 0 0-.2-1.7l-.6-1.3a6.7 6.7 0 0 1-.6-1.2 2.8 2.8 0 0 1-.3-1.3c.4 0 .7 0 .9-.2l.4-.6a3 3 0 0 0 .4-.8l.8-.6h2.9a1.3 1.3 0 0 0 .9-.4 4.6 4.6 0 0 1 .7-.7h.4c.1 0 .2.2.2.4l.2.4c.1-.2.2-.4.4-.4l.6-.4 1.1-.6 1.4-.8 1.3-.8 1.1-.7.6-.4 2.1-1.2 1.7-.6a12 12 0 0 1 2-.3h6.4l1.5.5a4 4 0 0 0 1.5.3l1.5.4 1.6.4a15.7 15.7 0 0 1 4.5 3.1 18.1 18.1 0 0 1 3.2 4.1 21.8 21.8 0 0 1 1.7 5.1 24.1 24.1 0 0 1 .5 5.4v2.3z"/></symbol><symbol id="micropachycephalosaurus" viewBox="0 0 256 256"><path d="M132.5 152c-.3 0-.4.2-.4.6h-.1a.5.5 0 0 0-.5.5c0 .4.2.6.5.6s.4-.2.4-.6h.1c.4 0 .5-.2.5-.5s-.1-.6-.5-.6zm1.5-.8a2.4 2.4 0 0 0-.9.8h.3a2 2 0 0 0 1.1-.3 2.4 2.4 0 0 0 .9-.8h-.3a2 2 0 0 0-1.1.3zm3-2.5c-.3 0-.4.2-.4.5h-.1c-.3 0-.5.2-.5.6h-.1c-.3 0-.5.2-.5.6a.5.5 0 0 0 1 0h.1c.3 0 .4-.2.4-.6h.1c.4 0 .5-.2.5-.6s-.1-.5-.5-.5zm23.1-5.9c-.4.6-.9 1-1.2 1.4s.4.9.8 1a2 2 0 0 0 1.1.2 2.3 2.3 0 0 0 1.4-.4 6.4 6.4 0 0 0 1-1.3 10 10 0 0 0 .8-1.4c.2-.5.4-1.2.5-1.2h-3.4c-.2 0-.5 1.1-1 1.7z"/><path d="M128 2.5A126.5 126.5 0 1 0 254.5 129 126.5 126.5 0 0 0 128 2.5zm94.9 75a4.2 4.2 0 0 1-1.6.4h-3.7l-5.2 1.2a20.4 20.4 0 0 0-3.6 1.6 8.8 8.8 0 0 0-2.5 2.2 15.8 15.8 0 0 0-1.7 2.9 40.4 40.4 0 0 0-1.5 3.9c-.5 1.4-1 3.1-1.6 5l-1.2 3.4a30.5 30.5 0 0 1-1.3 3.2c-.4 1-.9 2-1.4 3.1s-1.1 2.1-1.8 3.2a41 41 0 0 1-2.6 4.1c-1 1.2-1.9 2.4-3 3.6l-3.1 3.6-3.1 3.8a12.6 12.6 0 0 0-1.3 2.6 20 20 0 0 1-1 2.6 9.8 9.8 0 0 1-1.3 2.2 6.7 6.7 0 0 1-2.5 1.6l-1.3.5-2 .7-2.1.6-1.3.4a2.8 2.8 0 0 1 .1 2 1.8 1.8 0 0 1-.8.9 3.4 3.4 0 0 1-1.2.6 1.8 1.8 0 0 0-.9 1l-2.3 6.7a2.5 2.5 0 0 1-1 1.5 5.1 5.1 0 0 1-1.8.9 6.6 6.6 0 0 1-2 .1 10.3 10.3 0 0 1-1.8-.1h-.8c-.5 0-.9.2-1.2.1a1.1 1.1 0 0 1-.4-.9c0-.2.1-.2.1-.4l.3-.2c0-.1.1-.2.2-.3a.6.6 0 0 0 .1-.4v-.2a27.2 27.2 0 0 0-3.5 1.6L151 149l-3.3 2.2-3.4 1.9-.8.5-1.2.5-1 .8a1.5 1.5 0 0 0-.4 1.1v.5l1.8 1.6 2 1.7a10 10 0 0 0 2 1.6 12 12 0 0 0 2.1 1.3 7.5 7.5 0 0 0 1.8.7l1.9.5 1.9.6 1.7.9 1.3 1.4 1.1 1.5 1.1 1.5a6.4 6.4 0 0 0 1.5 1.3l1.7.6a9.6 9.6 0 0 1 3.8 1.6 2.1 2.1 0 0 1 .8 1.7c0 .1-.1.2-.1.3v.2l-5.6 1.2a2.9 2.9 0 0 0-1.1.3 2.1 2.1 0 0 1-1.2.3h-.5l-1.2-.7-1.7-1-1.7-1-1-.7c-.1 0-.1-.1-.2-.2l-.3-.5-.4-.6c-.1-.2-.2-.3-.2-.4l-2.3-4.5-1.1-.5-1.8-.7-2.1-.9-2.2-1-1.8-.8-1.1-.6a15.8 15.8 0 0 1-2.7-1.6 13.3 13.3 0 0 1-2.6-2.1 10.5 10.5 0 0 1-2-2.7 8.2 8.2 0 0 1-1.1-3.1l-.5.2-.6.4-.9.6-1.7 1.2-2.1 1.4-2.1 1.3-1.8 1.1-.9.5-6 3.6a22.2 22.2 0 0 0-4.5 3.4 17.3 17.3 0 0 0-3.6 4.4c-.9 1.7-.7 3.9-2.3 6.6v.6c-.1.2 0 .3 0 .5v.4a9.7 9.7 0 0 0 1.1 4.4 8 8 0 0 0 2.1 2.6 9.4 9.4 0 0 0 2.6 1.4l2.6 1a5.6 5.6 0 0 1 1.9.9 4.6 4.6 0 0 1 .8 2.1h-13.2a1.4 1.4 0 0 0-.2-.4c-.1-.2-.2-.2-.4-.2l-.4-.2-.7-.3a2.9 2.9 0 0 1-1.2-1.5 14.2 14.2 0 0 1-.5-2.2c0-.8.2-1.5.2-2.3a21.1 21.1 0 0 0 .3-2.1v-1.4a9.2 9.2 0 0 1 .3-1.8c.2-.8.3-1.7.5-2.6s.5-2.1.8-3.2.6-2.1.8-3.1.5-1.9.7-2.7l.4-1.7c.2-.8.4-1.4.6-2l1-1.9a13 13 0 0 0 4.5-2.6 33.4 33.4 0 0 0 3.3-3.2l2.8-3.5a17.2 17.2 0 0 1 3.5-3 3.7 3.7 0 0 1 1.4-.7l2-.8 2.4-1 2.1-1.1 1.6-1.3a2.5 2.5 0 0 0 .6-1.6v-1.3a2.5 2.5 0 0 0-.7-1.2l-.7-.3-1.2-.5-1.2-.6-.8-.3a9.4 9.4 0 0 1-2-1.2l-2.6-1.9-2.6-1.5a3.1 3.1 0 0 0-1.7-.6h-7.8c-6 0-11.8-.1-17.6.1s-11.6.2-17.6.2c-4.4 0-8.7-.1-12.8-.4a98.5 98.5 0 0 1-12.3-1.3 95.4 95.4 0 0 1-12-2.9 74.2 74.2 0 0 1-11.7-5.1l-1.4-.7-1.6-1a5.3 5.3 0 0 1-1.3-1.3 2.3 2.3 0 0 1-.5-1.5 5.8 5.8 0 0 1 2 .4 11.7 11.7 0 0 1 2.4.9 11.2 11.2 0 0 1 2.2 1l1.5.6 4.7 1.6a41.3 41.3 0 0 0 5 1.5l5.1 1 4.8.3h26.4l2.6-.4 3.3-.5 3.6-.6 3.5-.6 2.6-.6 6.9-1.3 7.3-1.6q3.8-.9 7.2-2.1a39.7 39.7 0 0 0 6.6-2.8l3.8-1.8 3.8-1.6 3.9-1.3 4.2-.9h2.8l1.8-.2h1l1.9-.4 3.3-.7 4.1-.9 4-.9c1.2-.3 2.3-.9 3.3-1.1s1.5-.7 1.9-.7h6.5a68.2 68.2 0 0 1 7.9.7c2.5.2 5.1.5 7.8.5a10.1 10.1 0 0 0 5-1.3 18.3 18.3 0 0 0 4.5-3.5 32.3 32.3 0 0 0 3.9-4.9 62.2 62.2 0 0 0 3.2-5.6 53.8 53.8 0 0 0 2.5-5.6c.8-1.8 1.3-3.4 1.8-4.8s.8-2.3 1.1-3.4.7-2.2 1-3.1.8-1.8 1.2-2.6a7 7 0 0 1 1.8-2 7.6 7.6 0 0 1 2.6-1.6 12.7 12.7 0 0 1 3.8-.8h3c.8 1.7 1.8.9 3 1.3a36.8 36.8 0 0 1 3.5 1.5 14 14 0 0 1 3 1.8 2.9 2.9 0 0 1 1.2 2.2 2 2 0 0 1-.4 1.4 2.8 2.8 0 0 1-1.1.4z"/></symbol><symbol id="velociraptor" viewBox="0 0 256 256"><path d="M128.3 1.5A126.5 126.5 0 1 0 254.8 128 126.5 126.5 0 0 0 128.3 1.5zm109.4 115.4h-7.3c-3 0-6.1-.2-9.1-.5l-9.1-.9-9-1c-3-.3-6.1-.4-9.1-.4a125.8 125.8 0 0 0-16.2 1 69.8 69.8 0 0 0-15.8 3.6l-30.4 11a3.1 3.1 0 0 0-1.2 1.6 17.3 17.3 0 0 0-.8 2.7l-.6 2.8a9.8 9.8 0 0 1-.6 2 3.6 3.6 0 0 0 1.4 1.3 13.3 13.3 0 0 0 2.4 1.1l2.9 1.2 2.7 1.4a9.7 9.7 0 0 1 2.1 1.9 4.1 4.1 0 0 1 .8 2.5 2.1 2.1 0 0 1-.5 1.2 3.6 3.6 0 0 1-1.2.8l-1.6.8a8 8 0 0 0-1.6.8 2.9 2.9 0 0 0-1.2 1 2.5 2.5 0 0 0-.5 1.5 3.7 3.7 0 0 0 .8 2.5 10 10 0 0 0 1.9 1.6l2.4 1.3a8.7 8.7 0 0 1 2.1 1.7 13.7 13.7 0 0 1 2 3.5 17.4 17.4 0 0 1 1.3 3.6c.3 1.3.6 2.5.8 3.8s.1 2.7.2 4l1.3 1.3v7.1h.9l1 .2 1 .2c.3.1.5.1.5.2a4.4 4.4 0 0 1 .1.9 3.4 3.4 0 0 1-.1.9l-.3 1.3a3.1 3.1 0 0 1-.7.9.8.8 0 0 1-.8.3h-5.2c-.2 0-.5-.5-1-.8l-1.5-.9-1.5-.7c-.5-.4-.9-.9-1.2-.9h-6.1a4.8 4.8 0 0 1 .6-2.9 5.2 5.2 0 0 1 1.7-1.6 6.5 6.5 0 0 1 2.1-.6l2.1-.4a3.8 3.8 0 0 0 1.6-.6 1.4 1.4 0 0 0 .7-1.3.8.8 0 0 0-.1-.4v-.3l-.8-1.7c-.4-.8-.8-1.6-1.3-2.4l-1.5-2.5a10 10 0 0 0-1.6-1.8l-1.3-.8-1.8-.9-1.8-1.1a1.9 1.9 0 0 1-.9-1.1 11 11 0 0 1-.9-2.9 30.1 30.1 0 0 0-1.1-3.2 7.8 7.8 0 0 0-1.7-2.6 3.9 3.9 0 0 0-2.9-1 24.7 24.7 0 0 0-6 .8 28 28 0 0 0-5.7 2.2 24.9 24.9 0 0 0-5 3.5 21.1 21.1 0 0 0-3.9 4.5l-.3.2h-.2c-.1-.1-.1-.1-.1-.2s-.1-.1-.2-.3-.1-.4-.2-.6-.1-.5-.1-.7-.1-.3-.2-.3h-.3a1.4 1.4 0 0 0-1 .5l-.9 1.2-.8 1.3a4.5 4.5 0 0 1-.9 1 5.4 5.4 0 0 1-.6-1.6 8.6 8.6 0 0 1-.1-1.7 9.2 9.2 0 0 1 .4-2.9l.9-2.8c.3-.9.6-1.5.9-2.5a15.2 15.2 0 0 0 .4-2.7h-4.8c0-1.7.2-1.8.6-2.4a6.1 6.1 0 0 1 1.6-1.6 7.8 7.8 0 0 1 2.1-.9l2.1-.3 3 .2 3 .5 2.8.4a14.2 14.2 0 0 0 2.9.2h2.3a2.7 2.7 0 0 0-1.7-1.4l-2.5-.4-2.7-.2c-.8-.1-1.6.1-2.1-.2l-3.9-2.2h-.3a10.7 10.7 0 0 0-3.1 0 16.9 16.9 0 0 1-3.2.1 7.3 7.3 0 0 1-3-.7l-2.6-1.3-2.6-1.4a5 5 0 0 0-2.9-.6v6h1.6l1-.3.9-.6a3.5 3.5 0 0 1 .9-.6l.6-.2v2.8l2-.7c0 .1.2.3.2.5a4.3 4.3 0 0 0 .1.5 5.6 5.6 0 0 1-1.3 3.9 30.9 30.9 0 0 1-3.2 2.9 21.3 21.3 0 0 0-4.6-1.3l-4.8-.6v-7.8c0 .1-1 .2-1.7.5l-2 1a10.5 10.5 0 0 0-1.9 1.2c-.5.4-1 .8-1 1.2v6.8a17 17 0 0 0 3-.2l1.8-.6 1.2-.6a2.8 2.8 0 0 1 1.3-.3h.3c.1.1.1.3.3.7a6.1 6.1 0 0 0 .5 1.2l.3 1.3a4.4 4.4 0 0 1 .2 1 4.6 4.6 0 0 1-.4 1.9 5.8 5.8 0 0 1-1.1 1.8 6.4 6.4 0 0 1-1.5 1.3 3.1 3.1 0 0 1-1.8.5h-1l-3-.5a13.5 13.5 0 0 1-3.6-.7 14.2 14.2 0 0 1-3.3-1.2 2.6 2.6 0 0 1-1.4-2.1v-11.8c0-.1.4-.4.9-.8a15.4 15.4 0 0 1 1.8-1.6l2.4-2.2a18.8 18.8 0 0 0 2.4-2.5 21.1 21.1 0 0 0 1.8-2.7 5 5 0 0 0 .7-2.5 3.8 3.8 0 0 0-1.2-2.8 11.1 11.1 0 0 0-2.7-2 23.3 23.3 0 0 0-3.3-1.4l-2.5-.9-1.3-9.1c-.2-.8-.3-1.7-.6-2.7a12.8 12.8 0 0 0-1.1-2.7 7.4 7.4 0 0 0-1.8-2.1 3.9 3.9 0 0 0-2.6-.9 12.5 12.5 0 0 0-3.6.5 13 13 0 0 0-3.2 1.5l-1.7 1-2.5 1.5-2.9 1.7-3 1.7-2.5 1.7c-.8.4-1.3 1.1-1.7 1.1h-1l-1.7-.2-2-.4c-.7-.1-.9-.4-1.4-.8s-.4-.8-.4-1.3V119c0-.6-.2-.9.1-.9h1.5v-.5c.1-.2.1-.5.2-.8s.1-.6.2-.8v-.5a1.5 1.5 0 0 0-.8-.8l-.9-.5-.7-.7a1.9 1.9 0 0 1-.3-1.2 2.7 2.7 0 0 1 .3-1.2 7.5 7.5 0 0 1 .7-1.2c.2-.3.2-.6.6-.8l.8-.4v.8c0 .5.4 1 .5 1.5a1.2 1.2 0 0 0 1.2.7 1.3 1.3 0 0 0 1.1-.5 5.2 5.2 0 0 0 1-1.1 10.4 10.4 0 0 0 .6-1.6c.2-.5.3.3.3-1.4H22.4a1.5 1.5 0 0 1-.8-.5l-1.1-.6-.9-.8a1.4 1.4 0 0 1-.4-1.1 4.5 4.5 0 0 1 1.1-3.1 6.8 6.8 0 0 1 2.6-1.8 16 16 0 0 1 3.1-1l2.9-.8 2.2-1 3.3-1.5 3.3-1.6a11 11 0 0 1 2.2-1h13.6a7.9 7.9 0 0 1 3.8.9 12.6 12.6 0 0 1 3.1 2.5 35.9 35.9 0 0 1 2.5 3.3l2.3 3.3a20.2 20.2 0 0 0 2.3 2.6 3.7 3.7 0 0 0 2.4 1 .9.9 0 0 0 .8-.4 1 1 0 0 1 .9-.4 4 4 0 0 1 1.5.3l1.5.7 1.5.7a4.1 4.1 0 0 0 1.6.3l4-.2 4.1-.4 4.1-.5a28.3 28.3 0 0 1 4.1-.3c2.5 0 4.9.2 7.3.4a40.8 40.8 0 0 1 7.2 1.6c1.6.6 3.3 1.2 5 2l5.1 2.2 5.2 1.7a19 19 0 0 0 5.4.7h2.5l12.8-2.7c4.3-.9 8.6-1.6 12.8-2.3s8.5-1.1 12.9-1.5 8.6-.6 13-.6h8.8a50.7 50.7 0 0 1 5 .9l36.3 7.3h11.6c-.8 0-1.8 1-3.1 1.3a14 14 0 0 1-4.1.2z"/></symbol></svg>